<svg width="230" height="51" viewBox="0 0 230 51" fill="none" xmlns="http://www.w3.org/2000/svg">
<path d="M151.545 44.0032C150.006 43.6672 148.782 42.9952 147.598 41.8092C143.038 37.2631 145.723 29.2975 152.157 28.2895C153.874 28.0127 155.65 28.3488 157.328 29.2185C159.104 30.1474 159.144 30.2463 158.216 31.6299C157.782 32.2624 157.407 32.7763 157.368 32.7763C157.328 32.7763 156.933 32.5391 156.479 32.2228C154.466 30.859 151.861 31.0369 150.242 32.6182C147.854 34.9505 148.525 39.4176 151.427 40.7419C152.354 41.1767 154.289 41.1965 155.473 40.8012L156.341 40.5047V38.2909V36.0772H157.999H159.657V38.8444V41.6116L159.065 42.1848C158.196 42.9952 156.44 43.8253 155.039 44.0428C153.558 44.2997 152.828 44.2997 151.545 44.0032ZM166.387 43.9835C164.493 43.4696 163.269 42.4813 162.46 40.8407C161.828 39.5164 161.808 36.8283 162.42 35.4842C162.993 34.2192 164.137 33.1123 165.46 32.5193C166.466 32.0647 166.723 32.0252 168.262 32.1043C170.631 32.2228 172.091 33.0332 173.137 34.8122C173.572 35.5435 173.651 35.919 173.71 37.4805L173.789 39.299H169.427C167.019 39.299 165.065 39.3781 165.065 39.4571C165.065 39.8327 165.953 40.8605 166.545 41.1767C167.493 41.6906 169.032 41.6313 170.177 41.0581L171.085 40.6035L171.993 41.5128L172.901 42.422L171.894 43.0742C170.848 43.766 169.131 44.3195 168.045 44.2997C167.651 44.2404 166.92 44.1218 166.387 43.9835ZM170.453 36.433C170.039 34.8319 168.183 34.1401 166.526 34.9901C165.874 35.3261 165.243 36.1365 165.243 36.6504C165.243 36.769 166.17 36.848 167.907 36.848H170.572L170.453 36.433ZM194.296 43.9835C193.072 43.6475 192.361 43.2126 191.473 42.2836C190.348 41.1372 189.953 40.0106 189.934 38.0537C189.934 36.5911 189.993 36.2551 190.447 35.3458C191.019 34.1994 191.986 33.2111 193.21 32.5589C193.901 32.2031 194.276 32.1438 195.954 32.1438C197.71 32.1438 197.986 32.1833 198.815 32.6379C200.75 33.6657 201.579 35.0691 201.796 37.6584L201.934 39.2792H197.473H193.013L193.21 39.8327C193.782 41.4732 196.644 42.0662 198.401 40.8802L199.032 40.4652L199.921 41.4337L200.809 42.4022L200.158 42.8964C198.618 44.023 196.131 44.4974 194.296 43.9835ZM198.539 36.7492C198.539 36.6899 198.421 36.3539 198.282 36.0179C197.73 34.7133 195.894 34.2192 194.493 35.0098C193.842 35.3854 193.19 36.1958 193.19 36.6504C193.19 36.7887 194.059 36.848 195.875 36.848C197.335 36.848 198.539 36.8085 198.539 36.7492ZM215.73 44.0032C214.112 43.5684 213.105 42.5603 212.77 41.0384C212.335 39.1013 213.283 37.5003 215.217 36.9271C215.809 36.7492 216.914 36.6504 218.197 36.6504H220.23L220.112 36.0574C219.954 35.2668 219.381 34.6738 218.631 34.5552C217.842 34.4366 216.421 34.6936 215.454 35.1679C215.039 35.3656 214.645 35.5435 214.585 35.5435C214.526 35.5435 214.191 35.0889 213.816 34.5552L213.164 33.5669L214.033 33.0925C215.533 32.2821 216.895 31.9857 218.77 32.0647C220.664 32.1636 221.651 32.5391 222.46 33.5076C223.21 34.4168 223.329 35.1679 223.329 39.7734V44.0823H221.849H220.368V43.3312V42.5801L219.618 43.2324C218.927 43.8253 217.684 44.2997 216.914 44.28C216.737 44.2404 216.204 44.1416 215.73 44.0032ZM219.243 41.1767C219.717 40.8407 220.191 39.8722 220.191 39.2397C220.191 38.8641 220.131 38.8444 218.454 38.9037C217.072 38.963 216.638 39.042 216.322 39.3188C215.829 39.7734 215.829 40.6035 216.302 41.0977C216.776 41.5918 218.592 41.6313 219.243 41.1767ZM226.289 35.8202V27.3802H228.145H230V35.8202V44.2602H228.145H226.289V35.8202ZM176.335 38.1526V32.2228H177.914H179.493V32.7763C179.493 33.0728 179.532 33.3297 179.572 33.3297C179.611 33.3297 180.124 33.0332 180.736 32.6775C181.763 32.045 181.901 32.0252 183.243 32.0845C184.486 32.1438 184.763 32.2228 185.453 32.717C185.888 33.0332 186.499 33.725 186.815 34.2983L187.388 35.3063L187.447 39.7141L187.506 44.1218H185.828H184.151V40.0896C184.151 36.3934 184.111 36.0179 183.776 35.4447C182.809 33.8436 180.263 34.4564 179.73 36.433C179.611 36.848 179.532 38.6862 179.532 40.6431V44.1218H177.953H176.374L176.335 38.1526ZM204.283 38.1526V32.2228H205.94H207.598V32.9937V33.7646L208.112 33.2902C208.783 32.6577 210.066 32.0252 210.658 32.0252C211.131 32.0252 211.131 32.045 211.131 33.5076V34.9901H210.441C209.434 34.9901 208.526 35.5435 208.052 36.4725C207.658 37.2236 207.638 37.4805 207.638 40.6628V44.0625H205.98H204.322V38.1526H204.283ZM166.881 29.0208C167.394 28.2895 168.006 27.4395 168.243 27.143L168.657 26.6094L170.137 27.2221C170.966 27.5581 171.618 27.9337 171.618 28.0325C171.618 28.1313 171.006 28.7045 170.276 29.2778L168.933 30.3451H167.414H165.894L166.881 29.0208ZM194.315 29.7521C194.552 29.4161 195.164 28.586 195.677 27.8941C196.684 26.4908 196.506 26.5303 198.539 27.4C199.21 27.6767 199.704 27.993 199.664 28.072C199.625 28.1511 198.993 28.7045 198.282 29.2975L196.98 30.3649H195.421H193.861L194.315 29.7521Z" fill="black"/>
<path d="M50.4321 43.9635C49.1887 43.5682 47.6886 42.1451 47.0373 40.7022C46.5834 39.6941 46.5044 39.3186 46.5044 37.935C46.5044 36.5118 46.5636 36.2153 47.1163 35.1085C47.5505 34.2388 47.9847 33.6656 48.636 33.1516C49.8203 32.2029 50.59 31.9855 52.2282 32.0645C53.4124 32.1238 53.7085 32.2227 54.4387 32.7366C54.9124 33.0726 55.3269 33.3295 55.3664 33.3295C55.4058 33.3295 55.4453 32.0448 55.4453 30.4635V27.5777H57.0243H58.6032V35.82V44.0623H57.0243H55.4453V43.3112C55.4453 42.8962 55.4058 42.5601 55.3269 42.5601C55.2479 42.5601 54.8927 42.8369 54.4782 43.1926C53.7677 43.8054 52.5637 44.2402 51.6953 44.2205C51.4782 44.2402 50.9058 44.1216 50.4321 43.9635ZM54.1229 40.9789C55.8401 39.7139 55.8203 36.3735 54.0835 35.0887C53.3335 34.555 51.8532 34.555 51.0637 35.1282C49.8203 36.0177 49.3466 38.1524 50.0571 39.7336C50.3729 40.4254 51.0242 41.0579 51.7347 41.3544C52.2479 41.5719 53.6295 41.3544 54.1229 40.9789ZM67.4849 36.2944V28.3288H69.3402H71.1955V36.2944V44.26H69.3402H67.4849V36.2944ZM91.8602 44.003C90.8536 43.6275 89.9655 42.8962 89.5707 42.0858C89.2747 41.4928 89.2154 40.8603 89.1562 37.9152L89.097 34.4364H88.3668H87.6562V33.3295V32.2227H88.4062H89.1562V30.3647V28.5067H90.8141H92.4721V30.3647V32.2227H93.8537H95.2353V33.3295V34.4364H93.8537H92.4721V37.5594C92.4721 40.3464 92.5115 40.7219 92.8076 40.9789C93.2418 41.3742 94.1892 41.3742 94.7813 40.9986C95.2155 40.7219 95.2353 40.7219 95.7287 41.5521C96.005 42.0265 96.2418 42.5404 96.2616 42.6985C96.3011 43.1334 94.5445 44.0623 93.4787 44.1612C92.926 44.2205 92.2747 44.1612 91.8602 44.003ZM102.183 44.003C99.4392 43.331 97.8603 41.394 97.6826 38.5279C97.5247 35.741 98.6892 33.6853 101.058 32.5587C104.097 31.1158 108.203 32.5784 109.17 35.4445C109.347 35.9781 109.485 36.9269 109.485 37.7966V39.2395H105.143C102.755 39.2395 100.801 39.3186 100.801 39.3976C100.801 39.7929 101.709 40.8405 102.281 41.137C103.268 41.6312 104.808 41.5719 105.893 40.9789L106.781 40.5045L107.709 41.4335L108.637 42.3625L107.63 43.0148C106.564 43.7066 104.847 44.26 103.781 44.2205C103.387 44.2402 102.676 44.1216 102.183 44.003ZM106.15 36.5711C106.15 35.5631 104.946 34.6341 103.663 34.6341C102.439 34.6341 100.979 35.7014 100.979 36.5711C100.979 36.8083 101.354 36.8478 103.564 36.8478C105.775 36.8478 106.15 36.8083 106.15 36.5711ZM125.275 44.0821C123.538 43.7066 121.979 42.5404 121.17 41.0382C120.716 40.1883 120.676 39.9115 120.676 38.0536C120.676 36.1165 120.696 35.9584 121.249 34.9899C121.9 33.8237 123.222 32.7366 124.446 32.3017C125.512 31.9459 127.683 31.9459 128.729 32.3017C131.058 33.1121 132.242 34.8317 132.38 37.5989L132.459 39.2395H128.097C123.282 39.2395 123.282 39.2395 124.209 40.3464C124.9 41.1568 125.591 41.473 126.775 41.473C127.742 41.473 128.571 41.2161 129.341 40.6824C129.637 40.4847 129.775 40.5638 130.505 41.3544L131.334 42.2637L130.94 42.6787C129.933 43.7659 127.071 44.4577 125.275 44.0821ZM129.005 36.3339C128.472 34.1202 124.703 34.0806 123.933 36.2944L123.736 36.8478H126.42H129.104L129.005 36.3339ZM138.302 44.003C137.255 43.6077 136.723 43.2124 136.17 42.3625C135.657 41.5916 135.657 41.5719 135.598 38.014L135.538 34.4364H134.828H134.098V33.3295V32.2227H134.848H135.598V30.3647V28.5067H137.177H138.756V30.3647V32.2227H140.236H141.716V33.3295V34.4364H140.236H138.756V37.2036C138.756 39.872 138.913 40.8603 139.367 41.137C139.742 41.3742 140.788 41.2951 141.242 40.9986C141.677 40.7219 141.696 40.7219 142.288 41.7695C142.881 42.7973 142.881 42.8369 142.545 43.0938C141.183 44.0821 139.486 44.4577 138.302 44.003ZM74.5113 38.1524V32.2227H76.0903H77.6693V32.7761C77.6693 33.3295 77.9061 33.5074 78.1429 33.1516C78.2022 33.0528 78.6758 32.7563 79.1693 32.4994C81.4588 31.3332 84.1628 32.3413 85.2088 34.7329C85.4851 35.3456 85.5444 36.1758 85.6036 39.7732L85.6825 44.0821H84.0049H82.3272V40.1883C82.3272 35.6817 82.2088 35.1678 81.1035 34.7131C79.8009 34.1795 78.2811 34.9108 77.8864 36.2746C77.7877 36.6502 77.689 38.5675 77.689 40.5243V44.0821H76.11H74.5311L74.5113 38.1524ZM112.071 38.1524V32.2227H113.65H115.229V32.954V33.6853L116.314 32.9342C116.986 32.4796 117.696 32.1436 118.17 32.0843L118.939 31.9855V33.4679V34.9503L118.032 35.0294C116.867 35.148 116.275 35.5235 115.762 36.5118C115.387 37.2234 115.347 37.6187 115.288 40.6824L115.229 44.0623H113.67H112.11V38.1524H112.071ZM61.3862 33.1121C61.6033 32.5784 61.8204 32.0645 61.8599 31.9855C61.9191 31.9064 61.7809 31.6099 61.5638 31.353C60.6559 30.2065 61.5835 28.5067 63.1033 28.5067C63.3599 28.5067 63.8138 28.7241 64.1296 28.9811C64.6033 29.3764 64.702 29.5938 64.702 30.2658C64.702 30.9181 64.5244 31.3332 63.7349 32.5191C62.7678 33.962 62.7678 33.962 61.8796 34.0213L60.9914 34.0806L61.3862 33.1121ZM101.827 30.1275C102.163 29.574 104.334 26.6487 104.433 26.6487C104.492 26.6487 105.222 26.9452 106.071 27.3208L107.63 27.9928L106.209 29.1787L104.788 30.3647H103.249C102.045 30.3647 101.729 30.3054 101.827 30.1275ZM122.176 30.1275C122.255 30.0089 122.768 29.2578 123.321 28.4672L124.347 27.0243H126.4H128.453L129.597 28.6451L130.742 30.2658L129.519 30.3251L128.295 30.3844L127.446 29.5345C126.972 29.0799 126.499 28.6846 126.4 28.6846C126.301 28.6846 125.847 29.0601 125.394 29.5147C124.584 30.3449 124.565 30.3449 123.301 30.3449C122.354 30.3647 122.078 30.3054 122.176 30.1275ZM110.413 19.7109V12.1999H111.617H112.821V13.1289V14.0579L113.413 13.3859C114.282 12.3976 115.189 12.0023 116.571 12.0023C119.966 12.0221 122.354 15.145 121.703 18.7029C121.229 21.391 119.157 23.2885 116.65 23.2885C115.426 23.2885 114.578 22.992 113.532 22.1619L112.801 21.5887V24.4152V27.2022H111.597H110.393V19.7109H110.413ZM117.597 21.0155C119.966 19.79 120.143 15.995 117.913 14.473C116.768 13.6824 115.13 13.7614 114.025 14.6509C111.972 16.2717 112.485 20.2644 114.854 21.1538C115.407 21.3515 117.104 21.2724 117.597 21.0155ZM83.1167 23.0711C82.3864 22.7549 81.518 21.8259 81.2417 21.055C81.1035 20.6795 81.0246 19.197 81.0048 17.1612L80.9851 13.88H80.2351H79.4851V13.0499V12.2197H80.2351H80.9851V10.4606V8.70141H82.0904H83.1956V10.4606V12.2197H84.6759H86.1562V13.0499V13.88H84.6957H83.2154V17.1414V20.4027L83.7878 20.9759C84.2614 21.4503 84.4391 21.5294 85.0115 21.4306C85.3667 21.3713 85.8207 21.1934 85.9983 21.0352C86.2944 20.7585 86.3536 20.798 86.7878 21.5689L87.2417 22.3991L86.3536 22.8735C85.3667 23.3874 84.0443 23.4664 83.1167 23.0711ZM100.545 23.0711C98.1169 22.1619 96.8932 20.383 96.8932 17.6948C96.8932 15.1846 97.8405 13.6231 99.9524 12.5755C101.058 12.0221 101.255 12.0023 102.676 12.0616C105.992 12.2395 107.808 14.1765 107.808 17.5367V18.7029H103.466C99.3603 18.7029 99.1235 18.7226 99.1235 19.0389C99.1235 19.6121 99.9129 20.5806 100.702 20.9957C101.867 21.6084 103.762 21.5491 104.926 20.8573L105.814 20.3237L106.446 20.9364L107.077 21.5491L106.663 21.8852C105.499 22.8142 104.413 23.1897 102.814 23.2688C101.788 23.3083 101.018 23.2292 100.545 23.0711ZM105.518 16.2322C105.262 14.8881 104.176 14.0184 102.676 13.9196C101.827 13.8603 101.433 13.9393 100.781 14.2753C99.8735 14.7497 99.1235 15.7182 99.1235 16.3903V16.8251H102.38H105.637L105.518 16.2322ZM135.894 23.0513C133.446 22.1817 132.124 20.0272 132.282 17.2402C132.38 15.6194 132.795 14.6311 133.821 13.6033C134.848 12.5755 135.834 12.1604 137.453 12.0616C139.19 11.9628 140.374 12.3185 141.499 13.2673C142.644 14.2556 143.157 15.4811 143.157 17.26V18.7029H138.795H134.433L134.551 19.1773C134.769 20.0074 135.203 20.5213 136.19 20.9957C137.63 21.7073 139.446 21.5689 140.67 20.6399L141.223 20.2248L141.815 20.9364L142.407 21.648L141.637 22.2014C141.203 22.5177 140.433 22.8932 139.94 23.0316C138.795 23.3874 136.821 23.3874 135.894 23.0513ZM140.887 16.1729C140.729 15.1846 140.275 14.6311 139.328 14.2161C137.67 13.4847 135.341 14.2161 134.729 15.659C134.216 16.9042 134.117 16.8647 137.729 16.8647H140.986L140.887 16.1729ZM162.262 23.0316C161.118 22.6165 159.756 21.2922 159.262 20.1655C158.67 18.7819 158.572 17.4576 158.986 15.9752C159.282 14.9079 159.479 14.5718 160.348 13.7021C161.552 12.4964 162.637 12.0418 164.374 12.0418C166.565 12.0418 168.499 13.1882 169.289 14.9474C169.486 15.3822 169.683 16.3903 169.743 17.2204L169.861 18.7029H165.401C162.933 18.7029 160.94 18.7424 160.94 18.8017C160.94 19.197 161.552 20.1853 162.025 20.6004C163.387 21.7468 165.874 21.7666 167.197 20.6399L167.73 20.1853L168.322 20.8573C168.874 21.4899 168.894 21.5491 168.598 21.8852C168.42 22.0828 167.828 22.4584 167.256 22.7351C165.973 23.3281 163.526 23.4862 162.262 23.0316ZM167.394 16.331C167.394 15.066 165.933 13.88 164.335 13.88C163.151 13.88 161.769 14.6707 161.295 15.6194C161.078 16.0543 160.92 16.5089 160.92 16.6275C160.92 16.7856 161.789 16.8449 164.157 16.8449H167.394V16.331ZM174.42 22.8932C173.374 22.3398 172.644 21.2922 172.407 20.0074C172.309 19.454 172.23 17.4774 172.23 15.5997V12.1999H173.434H174.637V15.8368C174.637 19.8888 174.776 20.5016 175.802 21.0352C176.611 21.4503 178.269 21.2922 179.059 20.7388C180.065 20.0272 180.184 19.4737 180.184 15.6392V12.1999H181.289H182.394V17.6751V23.1502H181.289H180.184V22.1817V21.2131L179.631 21.8852C178.427 23.3281 176.098 23.7827 174.42 22.8932ZM53.6098 15.9159V8.68164H58.7019H63.7744V9.78852V10.8954H59.8862H55.998V12.8324V14.7695H59.5112H63.0244V15.8764V16.9833H59.5112H55.998V18.9203V20.8573H60.0638H64.1296V21.9642V23.0711H58.8598H53.59V15.9159H53.6098ZM67.1099 17.6751V12.1999H68.2152H69.3205V13.1289V14.0579L69.8929 13.4057C70.8008 12.3778 71.8863 11.943 73.406 12.0221C75.0245 12.1209 76.0311 12.7534 76.7219 14.1172C77.1758 15.0067 77.1956 15.1648 77.2548 19.0784L77.314 23.1106H76.0903H74.8666V19.4737C74.8666 15.4613 74.7284 14.809 73.7416 14.2951C72.9126 13.88 71.3337 13.9393 70.5837 14.4532C69.4389 15.2241 69.3007 15.738 69.3007 19.6319V23.1106H68.1955H67.0902L67.1099 17.6751ZM89.1365 17.6751V12.1999H90.3405H91.5444V13.2278V14.2556L92.2352 13.5045C92.9655 12.6941 94.0708 12.0418 94.6826 12.0418C95.0181 12.0418 95.0576 12.1604 95.0576 13.1487C95.0576 14.1963 95.0379 14.2556 94.6037 14.2556C93.4787 14.2556 92.4326 15.0067 91.88 16.1926C91.5839 16.8251 91.5444 17.4181 91.5247 20.0469V23.1502H90.3207H89.1168V17.6751H89.1365ZM124.663 17.6751V12.1999H125.768H126.874V13.2475V14.2951L127.525 13.544C128.157 12.7929 129.479 12.0023 130.071 12.0023C130.328 12.0023 130.387 12.1999 130.387 13.0894V14.1765L129.676 14.2951C128.709 14.4532 127.801 15.1055 127.347 15.995C127.012 16.6472 126.953 17.1216 126.894 19.9284L126.834 23.1304H125.749H124.643L124.663 17.6751ZM145.94 17.6751V12.1999H147.045H148.15V13.1685V14.137L148.703 13.465C149.473 12.536 150.617 12.0221 151.92 12.0221C153.677 12.0221 154.841 12.6941 155.611 14.1568C155.986 14.8486 156.006 15.2241 156.065 19.0191L156.124 23.1502H155.019H153.914L153.854 19.4935C153.795 16.1926 153.756 15.7775 153.42 15.1846C152.946 14.3544 152.374 14.0777 151.21 14.0777C149.946 14.0777 149.098 14.5521 148.585 15.5601C148.19 16.3112 148.17 16.6077 148.17 19.7702V23.1502H147.065H145.96V17.6751H145.94ZM185.907 17.6751V12.1999H187.111H188.315V13.2278V14.2556L189.006 13.5045C189.736 12.6941 190.842 12.0418 191.453 12.0418C191.789 12.0418 191.828 12.1604 191.828 13.1487C191.828 14.1963 191.809 14.2556 191.375 14.2556C190.25 14.2556 189.203 15.0067 188.651 16.1926C188.355 16.8251 188.315 17.4181 188.296 20.0469V23.1502H187.092H185.888L185.907 17.6751Z" fill="#666666"/>
<path d="M31.603 28.0918C33.8376 28.0918 35.6491 26.2776 35.6491 24.0398C35.6491 21.8019 33.8376 19.9878 31.603 19.9878C29.3684 19.9878 27.5569 21.8019 27.5569 24.0398C27.5569 26.2776 29.3684 28.0918 31.603 28.0918Z" fill="white"/>
<path d="M31.6029 29.08C28.82 29.08 26.57 26.8267 26.57 24.0398C26.57 21.2528 28.82 18.9995 31.6029 18.9995C34.3859 18.9995 36.6359 21.2528 36.6359 24.0398C36.6359 26.8267 34.3661 29.08 31.6029 29.08ZM31.6029 20.9761C29.9253 20.9761 28.5437 22.3597 28.5437 24.0398C28.5437 25.7199 29.9253 27.1035 31.6029 27.1035C33.2806 27.1035 34.6622 25.7199 34.6622 24.0398C34.6622 22.3597 33.2806 20.9761 31.6029 20.9761Z" fill="black"/>
<path d="M16.4251 31.4126C18.6597 31.4126 20.4712 29.5984 20.4712 27.3606C20.4712 25.1227 18.6597 23.3086 16.4251 23.3086C14.1905 23.3086 12.379 25.1227 12.379 27.3606C12.379 29.5984 14.1905 31.4126 16.4251 31.4126Z" fill="white"/>
<path d="M16.4251 32.4008C13.6422 32.4008 11.3922 30.1476 11.3922 27.3606C11.3922 24.5736 13.6422 22.3203 16.4251 22.3203C19.2081 22.3203 21.4581 24.5736 21.4581 27.3606C21.4581 30.1476 19.1883 32.4008 16.4251 32.4008ZM16.4251 24.2969C14.7475 24.2969 13.3659 25.6805 13.3659 27.3606C13.3659 29.0407 14.7475 30.4243 16.4251 30.4243C18.1028 30.4243 19.4844 29.0407 19.4844 27.3606C19.4844 25.6805 18.1028 24.2969 16.4251 24.2969Z" fill="#808080"/>
<path d="M31.3858 37.4407L19.4252 30.4436L20.5304 28.5659L31.3858 34.9305L45.261 26.8265V10.9151L31.5042 2.96923L17.6686 11.0534V15.3031H15.4975V9.80819L31.5042 0.458984L47.4321 9.65006V28.0915L31.3858 37.4407Z" fill="#808080"/>
<path d="M16.3659 50.8021L0.655228 41.7297V23.2487L16.6028 14.0181L28.524 20.9163C28.9977 21.193 29.1556 21.786 28.8792 22.2604C28.6029 22.7348 28.0108 22.8929 27.5371 22.6162L16.6028 16.2911L2.64867 24.3951V40.5832L16.3659 48.5291L30.3793 40.4251V36.0174C30.3793 35.4639 30.8135 35.0291 31.3661 35.0291C31.9188 35.0291 32.353 35.4639 32.353 36.0174V41.5518L16.3659 50.8021Z" fill="black"/>
<path d="M199.348 22.8731C198.204 22.458 196.842 21.1337 196.348 20.007C195.756 18.6234 195.657 17.2991 196.072 15.8167C196.368 14.7493 196.565 14.4133 197.434 13.5436C198.638 12.3379 199.723 11.8833 201.46 11.8833C203.651 11.8833 205.585 13.0297 206.375 14.7889C206.572 15.2237 206.769 16.2318 206.829 17.0619L206.947 18.5444H202.486C200.019 18.5444 198.026 18.5839 198.026 18.6432C198.026 19.0385 198.638 20.0268 199.111 20.4419C200.473 21.5883 202.96 21.6081 204.283 20.4814L204.815 20.0268L205.408 20.6988C205.96 21.3313 205.98 21.3906 205.684 21.7266C205.506 21.9243 204.914 22.2999 204.342 22.5766C203.059 23.1893 200.611 23.3474 199.348 22.8731ZM204.48 16.1725C204.48 14.9075 203.019 13.7215 201.421 13.7215C200.236 13.7215 198.855 14.5121 198.381 15.4609C198.164 15.8957 198.006 16.3504 198.006 16.469C198.006 16.6271 198.875 16.6864 201.243 16.6864H204.48V16.1725Z" fill="#666666"/>
<path d="M193.111 23.2293C193.765 23.2293 194.296 22.6983 194.296 22.0434C194.296 21.3884 193.765 20.8574 193.111 20.8574C192.457 20.8574 191.927 21.3884 191.927 22.0434C191.927 22.6983 192.457 23.2293 193.111 23.2293Z" fill="#666666"/>
<path d="M16.583 16.2911C16.0304 16.2911 15.5962 15.8562 15.5962 15.3028V10.4404C15.5962 9.88699 16.0304 9.45215 16.583 9.45215C17.1357 9.45215 17.5699 9.88699 17.5699 10.4404V15.3028C17.5699 15.8562 17.1159 16.2911 16.583 16.2911Z" fill="#808080"/>
</svg>
