<svg width="97" height="74" viewBox="0 0 97 74" fill="none" xmlns="http://www.w3.org/2000/svg">
<path d="M10.6781 37.0845L10.8463 44.064H9.9214V36.3276H11.3508L12.4438 43.2231L13.4527 36.3276H14.8821V44.064H14.0413L14.2095 37.0845L13.0323 44.064H11.8552" fill="black"/>
<path d="M20.6836 42.1296C20.5995 43.1387 20.4313 44.1478 18.8338 44.1478C18.5816 44.1478 18.1612 44.1478 17.8249 43.8955C17.2363 43.6433 17.1522 43.0546 17.0681 42.7183C16.9841 42.2137 16.9841 41.0365 16.9841 40.3637C16.9841 39.8592 16.9841 38.2615 17.0681 37.841C17.0681 37.4205 17.2363 36.1592 19.002 36.1592C20.5995 36.1592 20.7677 37.3365 20.7677 37.7569C20.8517 38.4296 20.8517 39.7751 20.8517 40.0274C20.7677 40.7001 20.6836 41.541 20.6836 42.1296ZM17.9089 41.6251C17.9089 42.3819 17.8249 43.3069 18.8338 43.3069C19.6746 43.3069 19.6746 42.5501 19.7587 42.0455C19.8428 41.3728 19.8428 40.616 19.8428 40.0274C19.8428 39.4387 19.8428 38.8501 19.8428 38.2615C19.8428 37.7569 19.8428 37.0001 18.9179 37.0001C18.0771 37.0001 17.993 37.841 17.993 38.2615C17.993 38.6819 17.993 38.766 17.993 40.616C17.9089 41.1205 17.9089 41.1205 17.9089 41.6251Z" fill="black"/>
<path d="M24.1308 36.3276C24.8035 36.3276 25.308 36.3276 25.7284 36.5799C26.401 37.0004 26.401 37.9254 26.401 38.1776C26.401 39.1867 25.9806 39.9435 25.1398 39.9435C26.1488 39.9435 26.4851 40.7845 26.4851 41.7095C26.4851 42.5504 26.401 43.139 25.9806 43.5595C25.4761 44.064 24.9716 44.064 23.9627 44.064H22.7015V36.3276H24.1308ZM23.7104 39.5231H24.3831C24.9716 39.5231 25.5602 39.5231 25.5602 38.3458C25.5602 37.2526 24.9716 37.2526 24.299 37.2526H23.7945V39.5231H23.7104ZM23.7104 40.364V43.2231H24.2149C24.9716 43.2231 25.5602 43.2231 25.5602 41.9617C25.5602 40.4481 25.1398 40.364 24.1308 40.364H23.7104Z" fill="black"/>
<path d="M29.1756 36.3276H28.2507V43.9799H29.1756V36.3276Z" fill="black"/>
<path d="M34.4726 44.064H31.2776V36.3276H32.2025V43.2231H34.4726V44.064Z" fill="black"/>
<path d="M36.8269 36.3276H35.902V43.9799H36.8269V36.3276Z" fill="black"/>
<path d="M42.3761 44.064H38.8448V36.3276H42.292V37.2526H39.8537V39.5231H41.9557V40.364H39.8537V43.2231H42.3761V44.064Z" fill="black"/>
<path d="M48.0095 44.0634H47.0005L45.6552 40.6998H44.8985V44.0634H43.9736V36.4111H45.6552C46.6642 36.4111 47.6731 36.5793 47.6731 38.5134C47.6731 39.102 47.5891 39.6066 47.505 39.8589C47.2527 40.5316 46.8323 40.6157 46.6642 40.6157L48.0095 44.0634ZM44.8985 39.943C45.9915 39.943 46.1597 39.943 46.3279 39.7748C46.6642 39.5225 46.6642 38.9339 46.6642 38.5975C46.6642 38.093 46.6642 37.6725 46.2438 37.4202C45.9915 37.252 45.8234 37.252 44.8144 37.252V39.943H44.8985Z" fill="black"/>
<path d="M55.9129 44.064H54.5677L53.0542 37.4208L53.2224 44.064H52.2975V36.3276H53.5587L55.1562 43.0549L54.9881 36.3276H55.9129V44.064Z" fill="black"/>
<path d="M61.5463 44.064H60.5373L60.2851 42.5504H58.5194L58.2672 44.064H57.2582L58.9398 36.3276H59.8647L61.5463 44.064ZM60.1169 41.7095L59.3602 37.7572L58.6876 41.7095H60.1169Z" fill="black"/>
<path d="M64.1527 44.064H63.1438V37.2526H61.7144V36.3276H65.5821V37.2526H64.1527V44.064Z" fill="black"/>
<path d="M67.6841 36.3276H66.7592V43.9799H67.6841V36.3276Z" fill="black"/>
<path d="M73.4856 42.1296C73.4015 43.1387 73.2333 44.1478 71.6358 44.1478C71.3836 44.1478 70.9632 44.1478 70.6269 43.8955C70.1224 43.6433 69.9542 43.0546 69.8702 42.7183C69.7861 42.2137 69.7861 41.0365 69.7861 40.3637C69.7861 39.8592 69.7861 38.2615 69.8702 37.841C69.8702 37.4205 70.0383 36.1592 71.804 36.1592C73.4015 36.1592 73.5697 37.3365 73.5697 37.7569C73.6537 38.4296 73.6537 39.7751 73.6537 40.0274C73.4856 40.7001 73.4856 41.541 73.4856 42.1296ZM70.7109 41.6251C70.7109 42.3819 70.6269 43.3069 71.6358 43.3069C72.4766 43.3069 72.4766 42.5501 72.5607 42.0455C72.5607 41.3728 72.6448 40.616 72.6448 40.0274C72.6448 39.4387 72.6448 38.8501 72.6448 38.2615C72.6448 37.7569 72.6448 37.0001 71.7199 37.0001C70.8791 37.0001 70.795 37.841 70.795 38.2615C70.795 38.6819 70.795 38.766 70.795 40.616C70.7109 41.1205 70.7109 41.1205 70.7109 41.6251Z" fill="black"/>
<path d="M79.203 44.064H77.8577L76.3443 37.4208L76.5124 44.064H75.5035V36.3276H76.8488L78.3622 43.0549L78.2781 36.3276H79.203V44.064Z" fill="black"/>
<path d="M84.8363 44.064H83.8274L83.5751 42.5504H81.8095L81.5572 44.064H80.5483L82.2299 36.3276H83.1547L84.8363 44.064ZM83.407 41.7095L82.6503 37.7572L81.9776 41.7095H83.407Z" fill="black"/>
<path d="M89.2925 44.064H86.0975V36.3276H87.1065V43.2231H89.2925V44.064Z" fill="black"/>
<path d="M13.2005 52.473H12.5279L12.6119 47.6798L11.8552 52.473H11.0144L10.2577 47.6798L10.3418 52.473H9.75323V47.1753H10.6781L11.4348 51.8844L12.1915 47.1753H13.2005V52.473Z" fill="black"/>
<path d="M17.0682 52.473H16.3955L16.2274 51.4639H14.9662L14.798 52.473H14.1254L15.3025 47.1753H15.9751L17.0682 52.473ZM16.1433 50.8753L15.6388 48.1844L15.1343 50.8753H16.1433Z" fill="black"/>
<path d="M20.5995 52.473H19.6746L18.5816 47.9321L18.6657 52.473H18.0771V47.1753H19.002L20.0109 51.8003L19.9269 47.1753H20.5995V52.473Z" fill="black"/>
<path d="M24.6353 47.175V50.7068C24.6353 51.3796 24.6353 51.6318 24.4672 51.8841C24.2149 52.4727 23.6264 52.4727 23.29 52.4727C22.7015 52.4727 22.2811 52.3046 22.1129 51.8841C22.0289 51.6318 22.0289 51.4637 22.0289 50.7068V47.0909H22.7015V50.9591C22.7015 51.3796 22.7015 51.8841 23.3741 51.8841C23.9627 51.8841 23.9627 51.4637 23.9627 51.2114C23.9627 50.9591 23.9627 50.9591 23.9627 50.5387V47.0068H24.6353V47.175Z" fill="black"/>
<path d="M26.7373 52.473H26.0647V47.1753H28.4189V47.7639H26.7373V49.3617H28.1667V49.9503H26.7373V52.473Z" fill="black"/>
<path d="M31.7821 52.473H31.1095L30.9413 51.4639H29.6801L29.5119 52.473H28.8393L30.0164 47.1753H30.6891L31.7821 52.473ZM30.7731 50.8753L30.2687 48.1844L29.7642 50.8753H30.7731Z" fill="black"/>
<path d="M35.2294 50.623C35.2294 51.2957 35.2294 51.548 35.1453 51.7162C35.0612 52.0526 34.893 52.5571 33.9682 52.5571C33.1274 52.5571 32.7911 52.0526 32.707 51.6321C32.707 51.4639 32.6229 51.2958 32.6229 49.9503C32.6229 48.5208 32.6229 48.3526 32.707 48.1844C32.7911 47.9321 32.8751 47.1753 33.9682 47.1753C34.3886 47.1753 34.9771 47.3435 35.0612 47.9321C35.1453 48.1844 35.1453 48.5207 35.1453 48.9412H34.5567V48.5207C34.5567 48.1844 34.5567 47.7639 33.9682 47.7639C33.3796 47.7639 33.3796 48.1844 33.3796 48.4367C33.2955 48.8571 33.2955 49.6139 33.2955 50.0344C33.2955 50.3707 33.2955 51.4639 33.3796 51.6321C33.3796 51.7162 33.4637 52.1367 33.9682 52.1367C34.4726 52.1367 34.4726 51.7162 34.5567 51.6321C34.5567 51.4639 34.5567 51.3798 34.5567 50.7912H35.2294V50.623Z" fill="black"/>
<path d="M37.4995 52.473H36.8269V47.7639H35.8179V47.1753H38.5085V47.7639H37.4995V52.473Z" fill="black"/>
<path d="M41.8716 47.175V50.7068C41.8716 51.3796 41.8716 51.6318 41.7035 51.8841C41.4512 52.4727 40.8627 52.4727 40.5264 52.4727C39.9378 52.4727 39.5174 52.3046 39.3492 51.8841C39.2652 51.6318 39.2652 51.4637 39.2652 50.7068V47.0909H39.9378V50.9591C39.9378 51.3796 39.9378 51.8841 40.6104 51.8841C41.199 51.8841 41.199 51.4637 41.199 51.2114C41.199 50.9591 41.199 50.9591 41.199 50.5387V47.0068H41.8716V47.175Z" fill="black"/>
<path d="M46.1597 52.4726H45.4871L44.5622 50.1181H44.0577V52.3885H43.3851V47.0908H44.5622C45.2348 47.0908 45.9915 47.1749 45.9915 48.5204C45.9915 48.9408 45.9075 49.2772 45.9075 49.4454C45.7393 49.8658 45.4871 49.9499 45.3189 49.9499L46.1597 52.4726ZM44.0577 49.6135C44.8144 49.6135 44.8985 49.6135 45.0667 49.5295C45.3189 49.3613 45.3189 48.9408 45.3189 48.6885C45.3189 48.3522 45.3189 48.0158 45.0667 47.8476C44.8985 47.7635 44.7303 47.7635 44.0577 47.7635V49.6135Z" fill="black"/>
<path d="M49.607 52.473H47.2527V47.1753H49.5229V47.7639H47.8413V49.3617H49.3547V49.9503H47.8413V51.8844H49.607V52.473Z" fill="black"/>
<path d="M50.6159 50.6224H51.2045C51.2045 51.211 51.2045 51.211 51.2045 51.2951C51.2045 51.4633 51.2886 51.8837 51.8771 51.8837C52.1294 51.8837 52.5498 51.7996 52.5498 51.211C52.5498 50.7905 52.3816 50.6224 52.0453 50.286L51.2886 49.5292C50.7841 49.0246 50.7 48.6883 50.7 48.1837C50.7 47.9315 50.7 46.9224 51.9612 46.9224C52.2134 46.9224 52.7179 47.0065 52.8861 47.3428C53.0542 47.5951 53.0542 47.7633 53.0542 48.5201H52.4657C52.4657 48.0155 52.4657 47.9315 52.4657 47.8474C52.4657 47.7633 52.3816 47.4269 51.9612 47.4269C51.3726 47.4269 51.3726 47.9315 51.3726 48.0155C51.3726 48.436 51.5408 48.6042 51.8771 48.9405L52.5498 49.6133C52.9701 50.1178 53.1383 50.3701 53.1383 50.9587C53.1383 52.0519 52.2975 52.2201 51.8771 52.2201C51.3726 52.2201 51.1204 52.0519 51.0363 51.9678C50.7 51.7155 50.6159 51.2951 50.6159 50.8746V50.6224Z" fill="black"/>
<path d="M58.8557 52.473H57.9308L56.8378 47.9321L56.9219 52.473H56.3333V47.1753H57.2582L58.2672 51.8003L58.1831 47.1753H58.8557V52.473Z" fill="black"/>
<path d="M62.7234 52.473H62.0508L61.8826 51.4639H60.6214L60.4532 52.473H59.7806L60.9577 47.1753H61.6304L62.7234 52.473ZM61.7985 50.8753L61.294 48.1844L60.7896 50.8753H61.7985Z" fill="black"/>
<path d="M64.5731 52.473H63.9846V47.7639H62.9756V47.1753H65.5821V47.7639H64.5731V52.473Z" fill="black"/>
<path d="M67.1796 47.1753H66.507V52.473H67.1796V47.1753Z" fill="black"/>
<path d="M71.1314 51.2113C71.1314 51.884 70.9632 52.5567 69.8702 52.5567C69.702 52.5567 69.3657 52.5567 69.1975 52.3885C68.8612 52.2204 68.693 51.7999 68.693 51.6317C68.609 51.2954 68.609 50.5385 68.609 50.034C68.609 49.6976 68.609 48.6045 68.609 48.2681C68.609 48.0158 68.693 47.0908 69.9542 47.0908C71.0473 47.0908 71.1313 47.9317 71.2154 48.184C71.2154 48.6045 71.2154 49.6135 71.2154 49.6976C71.2154 50.2022 71.2154 50.7908 71.1314 51.2113ZM69.2816 50.7908C69.2816 51.2954 69.1975 51.9681 69.8702 51.9681C70.4587 51.9681 70.4587 51.4635 70.4587 51.1272C70.4587 50.7067 70.5428 50.1181 70.4587 49.6976C70.4587 49.2772 70.4587 48.8567 70.4587 48.4363C70.4587 48.0999 70.4587 47.5954 69.8702 47.5954C69.2816 47.5954 69.2816 48.184 69.1975 48.4363C69.1975 48.6885 69.1975 48.7726 69.1975 50.034C69.2816 50.4545 69.2816 50.4545 69.2816 50.7908Z" fill="black"/>
<path d="M75.1672 52.473H74.2423L73.2333 47.9321L73.3174 52.473H72.6448V47.1753H73.5696L74.6627 51.8003L74.4945 47.1753H75.1672V52.473Z" fill="black"/>
<path d="M79.1189 52.473H78.4463L78.194 51.4639H76.9328L76.7647 52.473H76.092L77.2692 47.1753H77.9418L79.1189 52.473ZM78.11 50.8753L77.6055 48.1844L77.101 50.8753H78.11Z" fill="black"/>
<path d="M82.2299 52.473H80.0438V47.1753H80.7164V51.8844H82.2299V52.473Z" fill="black"/>
<path d="M85.6771 52.473H83.3229V47.1753H85.593V47.7639H83.9115V49.3617H85.4249V49.9503H83.9115V51.8844H85.6771V52.473Z" fill="black"/>
<path d="M86.6861 50.6224H87.2746C87.2746 51.211 87.2746 51.211 87.2746 51.2951C87.2746 51.4633 87.3587 51.8837 87.9473 51.8837C88.1995 51.8837 88.6199 51.7996 88.6199 51.211C88.6199 50.7905 88.4517 50.6224 88.1154 50.286L87.3587 49.5292C86.8542 49.0246 86.7701 48.6883 86.7701 48.1837C86.7701 47.9315 86.7701 46.9224 88.0313 46.9224C88.2836 46.9224 88.7881 47.0065 88.9562 47.3428C89.1244 47.7633 89.1244 47.9315 89.1244 48.7724H88.5358C88.5358 48.2678 88.5358 48.1837 88.5358 48.0996C88.5358 48.0155 88.4517 47.6792 88.0313 47.6792C87.4428 47.6792 87.4428 48.1837 87.4428 48.2678C87.4428 48.6883 87.6109 48.8565 87.9473 49.1928L88.6199 49.8655C89.0403 50.3701 89.2085 50.6224 89.2085 51.211C89.2085 52.3042 88.3677 52.4724 87.9473 52.4724C87.4428 52.4724 87.1905 52.3042 87.1065 52.2201C86.7701 51.9678 86.6861 51.5474 86.6861 51.1269V50.6224Z" fill="black"/>
<path d="M13.5368 62.816H12.7801V62.2273C12.5279 62.4796 12.1915 62.816 11.3507 62.816C11.0144 62.816 10.3418 62.6478 10.0055 61.975C9.83731 61.6387 9.75323 61.3864 9.75323 59.2841C9.75323 58.1069 9.75323 56.9296 9.83731 56.6773C9.92139 55.9205 10.2577 55.0796 11.6871 55.0796C12.6119 55.0796 13.0323 55.3319 13.2005 55.6682C13.4527 56.0046 13.4527 56.2569 13.4527 57.5182H12.6119C12.6119 57.0137 12.6119 56.6773 12.6119 56.425C12.5279 56.0887 12.3597 55.8364 11.7711 55.8364C10.8463 55.8364 10.8463 56.425 10.8463 57.0978C10.8463 57.5182 10.7622 59.116 10.7622 59.6205C10.7622 60.2091 10.7622 60.5455 10.8463 61.05C10.8463 61.3864 10.9303 62.0591 11.6871 62.0591C11.9393 62.0591 12.2756 61.975 12.4438 61.7228C12.6119 61.5546 12.696 61.3864 12.696 60.3773V59.7046H11.603V58.8637H13.6209V62.816H13.5368Z" fill="black"/>
<path d="M19.002 60.9658C18.9179 61.8908 18.7498 62.8999 17.1522 62.8999C16.9 62.8999 16.4796 62.8999 16.1433 62.6477C15.6388 62.3954 15.4706 61.8068 15.3866 61.5545C15.3025 61.0499 15.3025 59.9568 15.3025 59.284C15.3025 58.7795 15.3025 57.1818 15.3866 56.8454C15.3866 56.4249 15.5547 55.1636 17.2363 55.1636C18.8338 55.1636 18.9179 56.3408 19.002 56.7613C19.0861 57.434 19.002 58.7795 19.002 58.9477C19.0861 59.5363 19.0861 60.3772 19.002 60.9658ZM16.3114 60.4613C16.3114 61.2181 16.2274 62.1431 17.2363 62.1431C17.993 62.1431 18.0771 61.4704 18.0771 60.9658C18.0771 60.3772 18.1612 59.5363 18.1612 58.9477C18.1612 58.359 18.1612 57.7704 18.1612 57.1818C18.1612 56.6772 18.1612 56.0045 17.3204 56.0045C16.4796 56.0045 16.3955 56.8454 16.3955 57.1818C16.3955 57.5181 16.3955 57.6863 16.3955 59.4522C16.3114 59.9568 16.3114 59.9568 16.3114 60.4613Z" fill="black"/>
<path d="M22.3652 55.2477C23.0378 55.2477 23.5423 55.2477 23.9627 55.4999C24.6353 55.9204 24.6353 56.7613 24.6353 57.0136C24.6353 58.0227 24.299 58.6954 23.4582 58.6954C24.4672 58.6954 24.8035 59.5363 24.8035 60.4613C24.8035 61.3022 24.7194 61.8068 24.299 62.2272C23.7945 62.7318 23.29 62.7318 22.2811 62.7318H21.0199V55.1636H22.3652V55.2477ZM21.8607 58.359H22.5333C23.0378 58.359 23.7104 58.359 23.7104 57.1818C23.7104 56.0886 23.206 56.0886 22.4493 56.0886H21.8607V58.359ZM21.8607 59.1159V61.9749H22.3652C23.1219 61.9749 23.7104 61.9749 23.7104 60.7136C23.7104 59.1999 23.29 59.1159 22.3652 59.1159H21.8607Z" fill="black"/>
<path d="M29.6801 62.8162H26.2328V55.248H29.596V56.089H27.1577V58.3594H29.2597V59.2003H27.1577V61.9753H29.6801V62.8162Z" fill="black"/>
<path d="M34.3045 62.8162H31.1095V55.248H32.1184V61.9753H34.3045V62.8162Z" fill="black"/>
<path d="M36.4906 55.248H35.5657V62.8162H36.4906V55.248Z" fill="black"/>
<path d="M42.0398 62.8162H40.6945L39.1811 56.2571L39.3493 62.8162H38.4244V55.248H39.6856L41.199 61.8071L41.1149 55.248H42.0398V62.8162Z" fill="black"/>
<path d="M43.4691 60.209H44.394C44.394 60.9658 44.394 61.0499 44.394 61.2181C44.394 61.3863 44.4781 62.1431 45.3189 62.1431C45.6552 62.1431 46.2438 62.059 46.2438 61.2181C46.2438 60.6295 45.9915 60.2931 45.5711 59.8727L44.5622 58.7795C43.8055 58.0227 43.7214 57.6022 43.7214 56.9295C43.7214 56.509 43.7214 55.1636 45.4871 55.1636C45.9075 55.1636 46.496 55.2477 46.8323 55.7522C47.0846 56.0886 47.0846 56.3409 47.0846 57.434H46.2438C46.2438 56.6772 46.2438 56.6772 46.2438 56.509C46.2438 56.3408 46.1597 55.9204 45.4871 55.9204C44.7303 55.9204 44.7303 56.5931 44.7303 56.8454C44.7303 57.434 44.8985 57.6022 45.4871 58.1908L46.4119 59.1999C47.0005 59.8727 47.3368 60.209 47.3368 61.134C47.3368 62.7318 46.0756 62.8999 45.4871 62.8999C44.7303 62.8999 44.394 62.6477 44.2259 62.5636C43.7214 62.2272 43.6373 61.6386 43.6373 61.0499V60.209H43.4691Z" fill="black"/>
<path d="M52.5497 55.2477C53.2224 55.2477 53.7269 55.2477 54.1473 55.4999C54.8199 55.9204 54.8199 56.7613 54.8199 57.0136C54.8199 58.0227 54.4836 58.6954 53.6428 58.6954C54.6517 58.6954 54.988 59.5363 54.988 60.4613C54.988 61.3022 54.904 61.8068 54.4836 62.2272C53.9791 62.7318 53.4746 62.7318 52.4657 62.7318H51.2045V55.1636H52.5497V55.2477ZM52.1293 58.359H52.802C53.3065 58.359 53.9791 58.359 53.9791 57.1818C53.9791 56.0886 53.4746 56.0886 52.7179 56.0886H52.1293V58.359ZM52.1293 59.1159V61.9749H52.6338C53.3905 61.9749 53.9791 61.9749 53.9791 60.7136C53.9791 59.1999 53.5587 59.1159 52.6338 59.1159H52.1293Z" fill="black"/>
<path d="M59.9488 62.8162H56.5856V55.248H59.8647V56.089H57.5104V58.3594H59.6124V59.2003H57.5104V61.9753H59.9488V62.8162Z" fill="black"/>
<path d="M65.1617 62.8158H64.1527L63.9005 61.3022H62.1348L61.8826 62.7318H60.8736L62.4711 55.1636H63.396L65.1617 62.8158ZM63.7323 60.5454L63.0597 56.6772L62.303 60.5454H63.7323Z" fill="black"/>
<path d="M70.0383 55.2477V60.2931C70.0383 61.2181 70.0383 61.6386 69.8701 61.9749C69.5338 62.8158 68.609 62.8158 68.1886 62.8158C67.3478 62.8158 66.7592 62.5636 66.507 61.9749C66.3388 61.6386 66.3388 61.4704 66.3388 60.2931V55.1636H67.2637V60.6295C67.2637 61.3022 67.2637 61.9749 68.1886 61.9749C69.0294 61.9749 69.0294 61.3863 69.0294 61.0499C69.0294 60.7136 69.0294 60.7136 69.0294 60.1249V55.1636H70.0383V55.2477Z" fill="black"/>
<path d="M73.8219 62.8162H72.6448L71.2154 55.248H72.1403L73.2333 61.8912L74.2423 55.248H75.1672L73.8219 62.8162Z" fill="black"/>
<path d="M80.0438 62.8162H79.0348L78.7826 61.3867H77.0169L76.7647 62.8162H75.7557L77.3533 55.248H78.2781L80.0438 62.8162ZM78.6144 60.5458L77.8577 56.6776L77.1851 60.5458H78.6144Z" fill="black"/>
<path d="M82.1458 55.248H81.2209V62.8162H82.1458V55.248Z" fill="black"/>
<path d="M83.6592 60.2094H84.5841C84.5841 60.9662 84.5841 61.0503 84.5841 61.2185C84.5841 61.3867 84.6682 62.1435 85.509 62.1435C85.8453 62.1435 86.4338 62.0594 86.4338 61.2185C86.4338 60.6299 86.1816 60.2935 85.7612 59.873L84.7522 58.864C83.9955 58.1071 83.9115 57.6867 83.9115 57.014C83.9115 56.5935 83.9115 55.248 85.6771 55.248C86.0975 55.248 86.6861 55.3321 87.0224 55.8367C87.2746 56.1731 87.2746 56.4253 87.2746 57.5185H86.4338C86.4338 56.7617 86.4338 56.7617 86.3498 56.5935C86.3498 56.4253 86.2657 56.0049 85.593 56.0049C84.8363 56.0049 84.8363 56.6776 84.8363 56.9299C84.8363 57.5185 85.0045 57.6867 85.593 58.2753L86.5179 59.2844C87.1065 59.9571 87.4428 60.2935 87.4428 61.2185C87.4428 62.8162 86.1816 62.9844 85.593 62.9844C84.8363 62.9844 84.5 62.7321 84.3318 62.648C83.8274 62.3117 83.7433 61.723 83.7433 61.1344V60.2094H83.6592Z" fill="black"/>
<path d="M9.66916 70.4682H10.594C10.594 71.225 10.594 71.3091 10.594 71.4773C10.594 71.6455 10.6781 72.4023 11.5189 72.4023C11.8552 72.4023 12.4438 72.3182 12.4438 71.4773C12.4438 70.8887 12.1915 70.5523 11.7711 70.1318L10.7622 69.1227C10.0896 68.3659 9.9214 67.9455 9.9214 67.2727C9.9214 66.8523 9.9214 65.5068 11.6871 65.5068C12.1075 65.5068 12.696 65.5909 13.0323 66.0955C13.2846 66.4318 13.2846 66.6841 13.2846 67.7773H12.4438C12.4438 67.1046 12.4438 67.0205 12.4438 66.8523C12.4438 66.6841 12.3597 66.2637 11.6871 66.2637C10.9304 66.2637 10.9304 66.9364 10.9304 67.1887C10.9304 67.7773 11.0985 67.9455 11.6871 68.5341L12.6119 69.5432C13.2005 70.2159 13.5368 70.5523 13.5368 71.4773C13.5368 73.075 12.2756 73.2432 11.6871 73.2432C10.9304 73.2432 10.594 72.9909 10.4259 72.9068C9.9214 72.5705 9.83732 71.9818 9.83732 71.3932V70.4682H9.66916Z" fill="black"/>
<path d="M18.5816 73.075H17.5726L17.3204 71.6455H15.5547L15.3025 73.075H14.2935L15.891 65.5068H16.8159L18.5816 73.075ZM17.1522 70.8046L16.3955 66.9364L15.7229 70.8046H17.1522Z" fill="black"/>
<path d="M21.7766 73.0749H20.5995L19.1702 65.5908H20.1791L21.1881 72.1499L22.2811 65.5908H23.206L21.7766 73.0749Z" fill="black"/>
<path d="M28.0826 71.2246C27.9985 72.1496 27.8304 73.1587 26.2328 73.1587C25.9806 73.1587 25.5602 73.1587 25.2239 72.9064C24.7194 72.6542 24.5512 72.0655 24.4672 71.8133C24.3831 71.3087 24.3831 70.2155 24.3831 69.5428C24.3831 69.0383 24.3831 67.5246 24.4672 67.1042C24.4672 66.6837 24.6353 65.4224 26.3169 65.4224C27.9144 65.4224 27.9985 66.5996 28.0826 67.0201C28.1667 67.6928 28.1667 69.0383 28.1667 69.2065C28.1667 69.7951 28.1667 70.7201 28.0826 71.2246ZM25.392 70.7201C25.392 71.4769 25.308 72.4019 26.3169 72.4019C27.0736 72.4019 27.1577 71.7292 27.1577 71.2246C27.1577 70.636 27.2418 69.7951 27.2418 69.2065C27.2418 68.6178 27.2418 68.0292 27.2418 67.4405C27.2418 66.936 27.2418 66.2633 26.401 66.2633C25.5602 66.2633 25.4761 67.1042 25.4761 67.4405C25.4761 67.7769 25.4761 67.9451 25.4761 69.711C25.392 70.2996 25.392 70.2996 25.392 70.7201Z" fill="black"/>
<path d="M33.7159 73.075H32.4547L30.9413 66.6L31.1094 73.075H30.1846V65.5068H31.4458L32.9592 72.15L32.8751 65.5068H33.7159V73.075Z" fill="black"/>
<path d="M39.4333 73.075H38.0881L36.5746 66.6L36.7428 73.075H35.8179V65.5068H37.0791L38.5925 72.15L38.5085 65.5068H39.4333V73.075Z" fill="black"/>
<path d="M44.8144 73.0749H41.4512V65.5908H44.7304V66.4317H42.3761V68.6181H44.4781V69.5431H42.3761V72.234H44.8144V73.0749Z" fill="black"/>
<path d="M50.4478 73.075H49.4388L48.1776 69.7955H47.4209V73.075H46.496V65.5068H48.1776C49.1866 65.5068 50.1955 65.675 50.1955 67.525C50.1955 68.1137 50.1114 68.5341 50.0274 68.8705C49.7751 69.4591 49.3547 69.6273 49.1866 69.6273L50.4478 73.075ZM47.3368 69.0387C48.4298 69.0387 48.5139 69.0387 48.7662 68.8705C49.1025 68.6182 49.1025 68.0296 49.1025 67.6932C49.1025 67.2727 49.1025 66.7682 48.7662 66.5159C48.5139 66.4318 48.3458 66.4318 47.3368 66.4318V69.0387Z" fill="black"/>
<path d="M52.802 65.5908H51.8771V73.159H52.802V65.5908Z" fill="black"/>
<path d="M58.2672 73.0749H54.8199V65.5908H58.1831V66.4317H55.8289V68.6181H57.8468V69.5431H55.8289V72.234H58.2672V73.0749Z" fill="black"/>
<path d="M49.691 58.6113H48.4299V59.8727H49.691V58.6113Z" fill="black"/>
<path d="M89.2925 58.6113H88.0313V59.8727H89.2925V58.6113Z" fill="black"/>
<path d="M61.4622 23.5454C60.5373 27.6658 56.8378 30.7772 52.3816 30.7772C47.2527 30.7772 43.1328 26.6567 43.1328 21.5272V10.0908C43.1328 8.07264 41.4512 6.39082 39.4333 6.39082C37.4154 6.39082 35.7338 8.07264 35.7338 10.0908H34.3885C34.3885 4.96128 38.5085 0.84082 43.6373 0.84082C48.7662 0.84082 52.9701 4.96128 52.9701 10.0908V21.4431C52.9701 23.4613 54.6517 25.1431 56.6696 25.1431C58.6876 25.1431 60.3691 23.4613 60.3691 21.4431H61.0418" fill="black"/>
<path d="M35.7338 21.4431C35.7338 23.4613 37.4154 25.1431 39.4333 25.1431C41.4512 25.1431 43.1328 23.4613 43.1328 21.4431H44.4781C44.4781 26.5726 40.3582 30.6931 35.2294 30.6931C30.1005 30.6931 25.9806 26.5726 25.9806 21.4431V10.0908C25.9806 8.07264 24.299 6.39082 22.2811 6.39082C20.1791 6.39082 18.4975 8.07264 18.4975 10.0908H17.1522C17.1522 4.96127 21.2721 0.84082 26.401 0.84082C31.5298 0.84082 35.6497 4.96127 35.6497 10.0908V21.4431H35.7338Z" fill="black"/>
<path d="M18.4975 21.4436C18.4975 23.4618 20.1791 25.1436 22.197 25.1436C24.2149 25.1436 25.8965 23.4618 25.8965 21.4436H27.2418C27.2418 26.5731 23.1219 30.6936 17.993 30.6936C12.8642 30.6936 8.74428 26.5731 8.74428 21.4436V10.0913C8.74428 8.07313 7.06269 6.39131 5.04478 6.39131C3.02687 6.39131 1.34527 8.07313 1.34527 10.0913H0C0 4.96176 4.1199 0.841309 9.24876 0.841309C14.3776 0.841309 18.4975 4.96176 18.4975 10.0913V21.4436Z" fill="black"/>
<path d="M78.0259 21.4431H77.6055C77.6055 23.4613 75.9239 25.1431 73.906 25.1431C71.8881 25.1431 70.2065 23.4613 70.2065 21.4431V10.0908C70.2065 4.96127 66.0866 0.84082 60.9577 0.84082C55.8289 0.84082 51.709 4.96127 51.709 10.0908H52.9701C52.9701 8.07264 54.6517 6.39082 56.6697 6.39082C58.6876 6.39082 60.3692 8.07264 60.3692 10.0908V21.4431C60.3692 26.5726 64.4891 30.6931 69.6179 30.6931C73.99 30.6931 77.6055 27.6658 78.6144 23.6295L78.0259 21.4431ZM69.6179 29.7681C64.9935 29.7681 61.294 26.0681 61.294 21.4431V10.0908C61.294 7.484 59.192 5.46582 56.6697 5.46582C55.2403 5.46582 53.9791 6.13855 53.1383 7.06355C54.3154 3.95218 57.3423 1.76582 60.8736 1.76582C65.498 1.76582 69.1975 5.46582 69.1975 10.0908V21.4431C69.1975 24.0499 71.2995 26.0681 73.8219 26.0681C75.2512 26.0681 76.5124 25.3954 77.3532 24.4704C76.1761 27.5817 73.1493 29.7681 69.6179 29.7681Z" fill="black"/>
<path d="M94.7577 21.4431C94.7577 23.4613 93.0761 25.1431 91.0582 25.1431C89.0403 25.1431 87.3587 23.4613 87.3587 21.4431V10.0908C87.3587 4.96127 83.2388 0.84082 78.1099 0.84082C73.906 0.84082 70.2905 3.69991 69.1975 7.56809L69.5338 10.0908H70.2065C70.2065 8.07264 71.8881 6.39082 73.906 6.39082C75.9239 6.39082 77.6055 8.07264 77.6055 10.0908V21.4431C77.6055 26.5726 81.7254 30.6931 86.8542 30.6931C91.9831 30.6931 96.103 26.5726 96.103 21.4431H94.7577ZM86.7701 29.7681C82.1458 29.7681 78.4463 26.0681 78.4463 21.4431V10.0908C78.4463 7.484 76.3443 5.46582 73.8219 5.46582C72.3925 5.46582 71.1313 6.13855 70.2905 7.06355C71.4677 3.95218 74.4945 1.76582 78.0259 1.76582C82.6502 1.76582 86.3497 5.46582 86.3497 10.0908V21.4431C86.3497 24.0499 88.4517 26.0681 90.9741 26.0681C92.4035 26.0681 93.6647 25.3954 94.5055 24.4704C93.3284 27.5817 90.3015 29.7681 86.7701 29.7681Z" fill="black"/>
</svg>
